<?xml version="1.0" encoding="utf-8"?>
<!-- Generator: Adobe Illustrator 26.5.0, SVG Export Plug-In . SVG Version: 6.00 Build 0)  -->
<svg version="1.1" id="Capa_1" xmlns="http://www.w3.org/2000/svg" xmlns:xlink="http://www.w3.org/1999/xlink" x="0px" y="0px"
	 width="156.2px" height="155.1px" viewBox="0 0 156.2 155.1" style="enable-background:new 0 0 156.2 155.1;" xml:space="preserve"
	>
<style type="text/css">
	.st0{fill:#66800A;}
</style>
<g>
	<path class="st0" d="M151.2,73.4c2.5,0.1,4.5-2.1,4.2-4.7C150.2,30.9,118.9,1.2,80.2,0C39.5-1.2,5.4,29.5,0,68.8
		c-0.3,2.3,1.3,4.4,3.7,4.4h0.2c1.9,0,3.5-1.4,3.7-3.2C12.4,34.4,43.3,6.5,80,7.7c35.1,1.1,63.4,28.3,67.9,62.7
		C148.1,72.1,149.5,73.4,151.2,73.4L151.2,73.4z"/>
	<g>
		<path class="st0" d="M64.7,129.9c-0.9-3.4-2.1-7-5-9.1c-7.2-5.1-13.8-10.4-20.5-17.4c-1.5-1.6-3.5-1.3-5.1,0
			c-1.3,1.2-1.7,3.4-0.6,5.1c0.8,1.2,1.8,2.2,2.8,3.3c3.5,3.8,7.2,7.3,10.7,11.1c0.5,0.5,0.4,1.5,0.6,2.3c-0.8,0.1-1.6,0.5-2.3,0.3
			c-1.9-0.6-3.9-1.3-5.6-2.4c-5.2-3-10.3-6.1-15.4-9.3c-2-1.3-4.1-2.6-5.2-4.8c-1.9-4-3.7-8-5.5-12c-1.9-4.3-3.8-8.7-5.7-13
			c-1-2.2-3-2.8-5.4-2c-1.6,0.5-2.7,2.4-2.4,4.5c0.2,1.4,0.5,2.7,0.9,4c2.2,7.1,4.2,14.2,6.6,21.2c1.2,3.5,2.7,6.9,5.2,9.7
			c3.1,3.5,6.2,7.1,9.3,10.8c2.6,3.1,5.3,6.1,8.5,8.5c11.5,7.8,25.3,14,39.9,14.1c-0.9-3.2-1.7-5.9-2.5-9.1
			C66.8,141.2,65.9,134.4,64.7,129.9z"/>
		<path class="st0" d="M129.9,135.6c3.5-3.8,6.9-7.6,10.3-11.5c1.7-2,3.6-3.9,4.9-6.2c3.9-6.9,6-14.5,8.3-22.1
			c0.9-3.1,1.8-6.3,2.6-9.4c0.5-2.2-0.5-4.2-2.1-4.8c-2.4-0.9-6.2,3.1-6.5,3.8c-3.2,7.2-6.4,14.4-9.8,21.5c-1,2.1-2.4,4-4.4,5.2
			c-4.2,2.6-8.4,5.5-12.7,7.9c-3.2,1.8-6.7,3.2-10.1,4.7c-0.8,0.4-1.9,0.6-2.5-0.4c-0.5-0.9,0.1-1.7,0.7-2.4
			c2.4-2.6,4.9-5.1,7.3-7.7c1.9-2,4-4,5.8-6.2c1.5-1.8,1.4-4.2-0.1-5.6c-1.7-1.7-4-1.5-6.1,0.7c-4.9,5.1-10.1,9.9-16,13.6
			c-4.8,3-7.5,7.3-8.9,12.5c-1.3,4.7-0.6,12.7-1.1,17.5c-0.3,3.2-0.9,5.4-1.8,8.4c10.2,0.3,16.9-4.4,26-8.1c2-1.2,4.1-2.4,6.1-3.5
			C123.6,141.4,127,138.8,129.9,135.6z"/>
	</g>
	<path class="st0" d="M93.8,44.5c-1.9-2.7-3.7-5.5-5.3-8.3c-0.9-1.5-1.4-3.2-2.1-5c-1.7,3.4-4.2,6-7.3,8.2c-3.2,2.3-6.5,4.3-9.6,6.8
		c-6.3,5.1-11,11.4-12.9,19.4c-2,8.1-1,15.6,4,22.5c2.6,3.6,5.8,6.3,9.9,8.4c-0.3-16,3.1-30.9,10.7-44.9c-0.9,3.6-2.3,7.1-3.3,10.7
		c-1,3.7-1.9,7.4-2.5,11.1c-0.3,1.7-0.5,3.3-0.6,5c-1,6.3-1.7,14.2-1.1,21.2c1.5,18.1,3.2,24.9,3.2,24.9l4-0.7
		c0,0-3.6-10.4-4.6-28.5c4.5-3.2,9-6.4,13.4-9.7c3.6-2.7,6.4-6.1,8-10.4c1.4-3.7,2-7.6,2.1-11.5C99.9,56.8,97.9,50.3,93.8,44.5z"/>
</g>
</svg>
