<svg xmlns="http://www.w3.org/2000/svg" width="750.7px" height="155.1px" viewBox="0 0 750.7 155.1" style="enable-background:new 0 0 750.7 155.1;">
<style type="text/css">
	.st0{fill:#FFFFFF;}
</style>
<g>
	<path class="st0" d="M151.2,73.4c2.5,0.1,4.5-2.1,4.2-4.7C150.2,30.9,118.9,1.2,80.2,0C39.5-1.2,5.4,29.5,0,68.8
		c-0.3,2.3,1.3,4.4,3.7,4.4h0.2c1.9,0,3.5-1.4,3.7-3.2C12.4,34.4,43.3,6.5,80,7.7c35.1,1.1,63.4,28.3,67.9,62.7
		C148.1,72.1,149.5,73.4,151.2,73.4L151.2,73.4z"/>
	<g>
		<path class="st0" d="M64.7,129.9c-0.9-3.4-2.1-7-5-9.1c-7.2-5.1-13.8-10.4-20.5-17.4c-1.5-1.6-3.5-1.3-5.1,0
			c-1.3,1.2-1.7,3.4-0.6,5.1c0.8,1.2,1.8,2.2,2.8,3.3c3.5,3.8,7.2,7.3,10.7,11.1c0.5,0.5,0.4,1.5,0.6,2.3c-0.8,0.1-1.6,0.5-2.3,0.3
			c-1.9-0.6-3.9-1.3-5.6-2.4c-5.2-3-10.3-6.1-15.4-9.3c-2-1.3-4.1-2.6-5.2-4.8c-1.9-4-3.7-8-5.5-12c-1.9-4.3-3.8-8.7-5.7-13
			c-1-2.2-3-2.8-5.4-2c-1.6,0.5-2.7,2.4-2.4,4.5c0.2,1.4,0.5,2.7,0.9,4c2.2,7.1,4.2,14.2,6.6,21.2c1.2,3.5,2.7,6.9,5.2,9.7
			c3.1,3.5,6.2,7.1,9.3,10.8c2.6,3.1,5.3,6.1,8.5,8.5c11.5,7.8,25.3,14,39.9,14.1c-0.9-3.2-1.7-5.9-2.5-9.1
			C66.8,141.2,65.9,134.4,64.7,129.9z"/>
		<path class="st0" d="M129.9,135.6c3.5-3.8,6.9-7.6,10.3-11.5c1.7-2,3.6-3.9,4.9-6.2c3.9-6.9,6-14.5,8.3-22.1
			c0.9-3.1,1.8-6.3,2.6-9.4c0.5-2.2-0.5-4.2-2.1-4.8c-2.4-0.9-6.2,3.1-6.5,3.8c-3.2,7.2-6.4,14.4-9.8,21.5c-1,2.1-2.4,4-4.4,5.2
			c-4.2,2.6-8.4,5.5-12.7,7.9c-3.2,1.8-6.7,3.2-10.1,4.7c-0.8,0.4-1.9,0.6-2.5-0.4c-0.5-0.9,0.1-1.7,0.7-2.4
			c2.4-2.6,4.9-5.1,7.3-7.7c1.9-2,4-4,5.8-6.2c1.5-1.8,1.4-4.2-0.1-5.6c-1.7-1.7-4-1.5-6.1,0.7c-4.9,5.1-10.1,9.9-16,13.6
			c-4.8,3-7.5,7.3-8.9,12.5c-1.3,4.7-0.6,12.7-1.1,17.5c-0.3,3.2-0.9,5.4-1.8,8.4c10.2,0.3,16.9-4.4,26-8.1c2-1.2,4.1-2.4,6.1-3.5
			C123.6,141.4,127,138.8,129.9,135.6z"/>
	</g>
	<path class="st0" d="M93.8,44.5c-1.9-2.7-3.7-5.5-5.3-8.3c-0.9-1.5-1.4-3.2-2.1-5c-1.7,3.4-4.2,6-7.3,8.2c-3.2,2.3-6.5,4.3-9.6,6.8
		c-6.3,5.1-11,11.4-12.9,19.4c-2,8.1-1,15.6,4,22.5c2.6,3.6,5.8,6.3,9.9,8.4c-0.3-16,3.1-30.9,10.7-44.9c-0.9,3.6-2.3,7.1-3.3,10.7
		c-1,3.7-1.9,7.4-2.5,11.1c-0.3,1.7-0.5,3.3-0.6,5c-1,6.3-1.7,14.2-1.1,21.2c1.5,18.1,3.2,24.9,3.2,24.9l4-0.7
		c0,0-3.6-10.4-4.6-28.5c4.5-3.2,9-6.4,13.4-9.7c3.6-2.7,6.4-6.1,8-10.4c1.4-3.7,2-7.6,2.1-11.5C99.9,56.8,97.9,50.3,93.8,44.5z"/>
</g>
<g>
	<path class="st0" d="M215,124.7c-1.9,0-3.4-0.4-4.7-1.3c-1.2-0.9-2.2-2.2-3.1-4.2l-34.7-79c-0.7-1.8-0.9-3.4-0.4-4.6
		c0.3-1.3,1-2.4,2.1-3.1c1-0.7,2.4-1,4-1c1.9,0,3.6,0.4,4.6,1.3c1,0.9,1.9,2.2,2.5,3.9l32.7,75.7H213l32.4-75.9
		c0.7-1.6,1.6-3,2.8-3.7c1-0.9,2.5-1.3,4.5-1.3c1.5,0,2.8,0.3,3.9,1c1,0.7,1.6,1.8,1.9,3.1c0.3,1.3,0,2.8-0.7,4.6l-34.9,79.1
		c-0.7,1.8-1.8,3.1-3,4.2C218.5,124.2,217,124.7,215,124.7z"/>
	<path class="st0" d="M289.9,125c-6.4,0-11.9-1.3-16.5-4c-4.6-2.7-8.2-6.5-10.8-11.4c-2.5-4.9-3.9-10.7-3.9-17.4
		c0-5,0.7-9.6,2.2-13.7s3.6-7.4,6.2-10.2c2.7-3,5.9-5,9.8-6.7c3.9-1.5,8.2-2.2,12.9-2.2c6.4,0,11.7,1.3,16.5,4
		c4.6,2.7,8.2,6.5,10.8,11.3c2.5,4.9,3.9,10.7,3.9,17.5c0,5-0.7,9.5-2.2,13.7c-1.5,4-3.6,7.6-6.2,10.4c-2.7,2.8-6.1,5-9.8,6.5
		C299,124.2,294.7,125,289.9,125z M289.9,114.9c3.6,0,6.7-0.9,9.4-2.5c2.7-1.8,4.7-4.3,6.2-7.7s2.2-7.6,2.2-12.5
		c0-7.4-1.6-13.1-4.9-16.9c-3.3-3.9-7.6-5.6-12.9-5.6c-3.6,0-6.8,0.9-9.5,2.5s-4.7,4.2-6.2,7.6c-1.5,3.4-2.2,7.6-2.2,12.5
		c0,7.4,1.6,12.9,4.9,16.9C280.1,113,284.6,114.9,289.9,114.9z"/>
	<path class="st0" d="M356.1,125c-6.7,0-11.9-1.9-15.3-5.9c-3.4-4-5.2-9.6-5.2-17.1V38c0-2.2,0.6-3.9,1.6-4.9
		c1.2-1.2,2.7-1.6,4.7-1.6c2.1,0,3.7,0.6,4.9,1.6c1.2,1.2,1.8,2.8,1.8,4.9v63.2c0,4.3,0.9,7.6,2.7,9.6c1.8,2.1,4.3,3.1,7.7,3.1
		c0.7,0,1.5,0,2.1,0s1.2-0.1,1.8-0.1c1-0.1,1.8,0.1,2.2,0.9c0.4,0.6,0.6,1.9,0.6,4c0,1.8-0.4,3.3-1.2,4.2c-0.7,1-2.1,1.6-3.7,1.9
		c-0.7,0.1-1.6,0.1-2.5,0.1C357.8,125,356.9,125,356.1,125z"/>
	<path class="st0" d="M398,125c-5,0-9.4-0.9-12.8-2.8c-3.4-1.9-5.9-4.7-7.7-8.5c-1.6-3.7-2.5-8.5-2.5-14.2V66.2c0-2.2,0.6-3.9,1.6-5
		c1.2-1,2.7-1.6,4.7-1.6c2.1,0,3.7,0.6,4.9,1.6c1.2,1,1.8,2.8,1.8,5v33.4c0,5,1,8.9,3.1,11.3c2.1,2.4,5.3,3.6,9.8,3.6
		c4.9,0,8.9-1.6,12-5c3.1-3.3,4.6-7.7,4.6-13.2v-30c0-2.2,0.6-3.9,1.6-5c1.2-1,2.8-1.6,4.9-1.6s3.7,0.6,4.7,1.6c1.2,1,1.6,2.8,1.6,5
		v52c0,4.5-2.1,6.7-6.4,6.7c-1.9,0-3.6-0.6-4.6-1.8c-1.2-1.2-1.6-2.8-1.6-4.9v-11l1.6,2.8c-1.8,4.9-4.5,8.6-8.3,11.1
		C407.8,123.7,403.2,125,398,125z"/>
	<path class="st0" d="M455.7,124.7c-2.1,0-3.7-0.6-4.7-1.8c-1.2-1.2-1.6-2.8-1.6-4.9v-52c0-2.2,0.6-3.9,1.6-4.9
		c1.2-1.2,2.7-1.6,4.6-1.6c2.1,0,3.7,0.6,4.7,1.6c1,1.2,1.6,2.8,1.6,4.9v10.1l-1.5-2.4c1.9-4.9,4.9-8.5,8.9-11c4-2.5,8.8-3.7,14-3.7
		c5,0,9.2,0.9,12.5,2.8c3.3,1.9,5.8,4.6,7.4,8.5c1.6,3.7,2.5,8.5,2.5,14.2v33.5c0,2.1-0.6,3.7-1.6,4.9c-1.2,1.2-2.7,1.8-4.7,1.8
		c-2.2,0-3.9-0.6-4.9-1.8c-1.2-1.2-1.6-2.8-1.6-4.9V85.5c0-5.5-1-9.4-3.1-11.9c-2.1-2.5-5.5-3.7-9.9-3.7c-5.3,0-9.5,1.6-12.6,4.9
		c-3.1,3.3-4.7,7.7-4.7,13.2v30.1C462.4,122.5,460.2,124.7,455.7,124.7z"/>
	<path class="st0" d="M551,125c-5.2,0-9.5-0.9-13.1-2.7s-6.2-4.5-7.9-8c-1.8-3.6-2.5-7.9-2.5-12.9V70.7h-7.7c-1.8,0-3.1-0.4-4-1.3
		s-1.5-2.1-1.5-3.7c0-1.6,0.4-3,1.5-3.7c0.9-0.9,2.2-1.3,4-1.3h7.7V47.2c0-2.2,0.6-3.9,1.8-4.9c1.2-1.2,2.8-1.6,4.9-1.6
		s3.7,0.6,4.7,1.6c1.2,1.2,1.6,2.8,1.6,4.9v13.4h15.1c1.8,0,3.1,0.4,4,1.3s1.5,2.1,1.5,3.7c0,1.5-0.4,2.8-1.5,3.7
		c-0.9,0.9-2.2,1.3-4,1.3h-15.3v29.5c0,4.6,1,8,3,10.4c1.9,2.4,5.2,3.6,9.5,3.6c1.5,0,3-0.1,4.2-0.4c1.2-0.3,2.1-0.4,3-0.6
		c0.9,0,1.8,0.3,2.4,1c0.6,0.6,0.9,1.9,0.9,3.7c0,1.3-0.3,2.5-0.7,3.6c-0.4,1.2-1.3,1.9-2.5,2.2c-1,0.3-2.4,0.7-4.2,1
		C554,124.8,552.4,125,551,125z"/>
	<path class="st0" d="M599.3,124.8c-6.2,0-11.6-1.3-16-3.9c-4.5-2.5-8-6.2-10.4-11.1c-2.5-4.7-3.7-10.5-3.7-17.2
		c0-6.5,1.2-12.3,3.7-17.2c2.5-4.9,5.9-8.8,10.2-11.4c4.3-2.7,9.4-4.2,15.1-4.2c4,0,7.7,0.7,10.8,2.1c3.1,1.3,5.8,3.4,8,5.9
		c2.2,2.5,3.9,5.8,5,9.5c1.2,3.7,1.8,7.9,1.8,12.6c0,1.2-0.3,1.9-0.7,2.5c-0.4,0.6-1.2,0.9-2.1,0.9h-48.4v-4.7h48.4l-2.2,1.5
		c0-5.3-0.7-9.8-2.4-13.5c-1.6-3.7-3.9-6.7-7-8.8c-3.1-2.1-6.8-3.1-11.4-3.1c-5,0-9.2,1.2-12.8,3.6c-3.6,2.4-6.1,5.6-7.9,9.6
		c-1.8,4-2.7,8.8-2.7,14v0.6c0,8.6,2.1,15.3,6.4,20c4.3,4.7,10.2,7.1,18,7.1c3.4,0,6.7-0.4,9.8-1.3c3-0.9,5.9-2.5,8.9-4.9
		c0.6-0.4,1.2-0.7,1.9-0.9c0.6,0,1.2,0.1,1.6,0.4c0.4,0.3,0.9,0.7,1,1.2s0.3,1,0,1.6c-0.1,0.6-0.6,1.2-1.3,1.6
		c-2.7,2.2-5.9,4-9.8,5.3C607.3,124.2,603.3,124.8,599.3,124.8z"/>
	<path class="st0" d="M665.6,124.8c-5.9,0-11.1-1.3-15.4-4.2c-4.3-2.8-7.6-6.7-9.8-11.6c-2.2-4.9-3.4-10.7-3.4-17.2
		c0-4.9,0.6-9.4,1.9-13.4c1.3-4,3.1-7.3,5.6-10.1c2.5-2.8,5.5-4.9,9.1-6.4c3.6-1.5,7.6-2.2,12-2.2c3.3,0,6.7,0.6,10.1,1.8
		c3.4,1.2,6.5,3.1,9.2,5.8c0.4,0.4,0.7,0.9,0.7,1.5c0,0.4,0,1-0.3,1.5c-0.1,0.4-0.6,0.9-1,1c-0.4,0.3-0.9,0.3-1.5,0.3
		c-0.6,0-1.2-0.3-1.8-1c-2.5-2.2-5-3.7-7.7-4.6s-5.2-1.2-7.7-1.2c-3.7,0-7,0.6-9.8,1.8c-2.8,1.2-5.2,3-7.3,5.2
		c-1.9,2.2-3.4,5-4.5,8.5c-1,3.3-1.5,7.1-1.5,11.4c0,8.6,1.9,15.4,5.9,20.3c4,4.9,9.6,7.4,16.9,7.4c2.5,0,5-0.4,7.7-1.2
		c2.7-0.9,5.2-2.4,7.7-4.6c0.6-0.6,1.2-0.9,1.8-1c0.6,0,1.2,0,1.5,0.3c0.4,0.3,0.7,0.6,1,1c0.1,0.4,0.3,1,0.3,1.5
		c0,0.4-0.3,1-0.7,1.5c-2.7,2.7-5.8,4.6-9.2,5.8C672.1,124.2,668.9,124.8,665.6,124.8z"/>
	<path class="st0" d="M722.6,124.8c-5.6,0-10.7-1.3-14.8-4c-4.2-2.7-7.4-6.4-9.8-11.3c-2.2-4.9-3.4-10.5-3.4-17.1
		c0-4.9,0.6-9.4,1.9-13.4c1.3-4,3.1-7.4,5.6-10.2s5.5-5,8.9-6.5c3.4-1.5,7.3-2.2,11.6-2.2c5.6,0,10.7,1.3,14.8,4
		c4.2,2.7,7.4,6.4,9.8,11.3c2.2,4.9,3.4,10.5,3.4,17.1c0,4.9-0.6,9.4-1.9,13.4c-1.3,4-3.1,7.4-5.6,10.2c-2.5,2.8-5.3,5-8.8,6.5
		C730.8,124.1,726.9,124.8,722.6,124.8z M722.6,119.8c4.6,0,8.6-1,11.9-3.3c3.4-2.2,5.9-5.3,7.7-9.4c1.8-4.2,2.7-9.1,2.7-14.7
		c0-8.6-2.1-15.4-6.1-20.2c-4-4.7-9.5-7.3-16.5-7.3c-4.6,0-8.6,1-11.9,3.3c-3.4,2.2-5.9,5.3-7.7,9.4c-1.8,4-2.7,9.1-2.7,14.8
		c0,8.6,2.1,15.4,6.1,20.2C710.3,117.4,715.8,119.8,722.6,119.8z"/>
</g>
</svg>
